<mxfile host="65bd71144e">
    <diagram id="e8bPTWR-AP_tHWoqGslN" name="Page-1">
        <mxGraphModel dx="965" dy="562" grid="1" gridSize="10" guides="1" tooltips="1" connect="1" arrows="1" fold="1" page="1" pageScale="1" pageWidth="1169" pageHeight="827" background="#FFFFFF" math="0" shadow="0">
            <root>
                <mxCell id="0"/>
                <mxCell id="1" parent="0"/>
                <mxCell id="10" value="&lt;font color=&quot;#1a1a1a&quot;&gt;Alumno&lt;/font&gt;" style="rounded=0;whiteSpace=wrap;html=1;fillColor=#cce5ff;strokeColor=#36393d;" vertex="1" parent="1">
                    <mxGeometry x="420" y="160" width="120" height="60" as="geometry"/>
                </mxCell>
                <mxCell id="12" value="&lt;font color=&quot;#1a1a1a&quot;&gt;Carrera&lt;/font&gt;" style="rounded=0;whiteSpace=wrap;html=1;fillColor=#cce5ff;strokeColor=#36393d;" vertex="1" parent="1">
                    <mxGeometry x="420" y="470" width="120" height="60" as="geometry"/>
                </mxCell>
                <mxCell id="13" value="&lt;font color=&quot;#1a1a1a&quot;&gt;Materia&lt;/font&gt;" style="rounded=0;whiteSpace=wrap;html=1;fillColor=#cce5ff;strokeColor=#36393d;" vertex="1" parent="1">
                    <mxGeometry x="820" y="160" width="120" height="60" as="geometry"/>
                </mxCell>
                <mxCell id="14" value="&lt;font color=&quot;#1a1a1a&quot;&gt;Profesor&lt;/font&gt;" style="rounded=0;whiteSpace=wrap;html=1;fillColor=#cce5ff;strokeColor=#36393d;" vertex="1" parent="1">
                    <mxGeometry x="820" y="470" width="120" height="60" as="geometry"/>
                </mxCell>
                <mxCell id="15" value="&lt;font color=&quot;#000000&quot;&gt;Imparte&lt;/font&gt;" style="rhombus;whiteSpace=wrap;html=1;fillColor=#cce5ff;strokeColor=#36393d;" vertex="1" parent="1">
                    <mxGeometry x="840" y="310" width="80" height="80" as="geometry"/>
                </mxCell>
                <mxCell id="19" value="" style="endArrow=none;html=1;fontColor=#000000;fillColor=#cce5ff;strokeColor=#36393d;entryX=0.5;entryY=1;entryDx=0;entryDy=0;exitX=0.5;exitY=0;exitDx=0;exitDy=0;" edge="1" parent="1" source="14" target="15">
                    <mxGeometry width="50" height="50" relative="1" as="geometry">
                        <mxPoint x="630" y="420" as="sourcePoint"/>
                        <mxPoint x="680" y="370" as="targetPoint"/>
                    </mxGeometry>
                </mxCell>
                <mxCell id="20" value="" style="endArrow=none;html=1;fontColor=#000000;exitX=0.5;exitY=0;exitDx=0;exitDy=0;fillColor=#cce5ff;strokeColor=#36393d;" edge="1" parent="1" source="15" target="13">
                    <mxGeometry width="50" height="50" relative="1" as="geometry">
                        <mxPoint x="860" y="310" as="sourcePoint"/>
                        <mxPoint x="910" y="260" as="targetPoint"/>
                    </mxGeometry>
                </mxCell>
                <mxCell id="21" value="&lt;font color=&quot;#000000&quot;&gt;Estudia&lt;/font&gt;" style="rhombus;whiteSpace=wrap;html=1;fillColor=#cce5ff;strokeColor=#36393d;" vertex="1" parent="1">
                    <mxGeometry x="440" y="310" width="80" height="80" as="geometry"/>
                </mxCell>
                <mxCell id="22" value="" style="endArrow=none;html=1;fontColor=#000000;entryX=0.5;entryY=1;entryDx=0;entryDy=0;exitX=0.5;exitY=0;exitDx=0;exitDy=0;fillColor=#cce5ff;strokeColor=#36393d;" edge="1" parent="1" source="12" target="21">
                    <mxGeometry width="50" height="50" relative="1" as="geometry">
                        <mxPoint x="580" y="440" as="sourcePoint"/>
                        <mxPoint x="630" y="390" as="targetPoint"/>
                    </mxGeometry>
                </mxCell>
                <mxCell id="23" value="" style="endArrow=none;html=1;fontColor=#000000;entryX=0.5;entryY=1;entryDx=0;entryDy=0;fillColor=#cce5ff;strokeColor=#36393d;" edge="1" parent="1" source="21" target="10">
                    <mxGeometry width="50" height="50" relative="1" as="geometry">
                        <mxPoint x="560" y="340" as="sourcePoint"/>
                        <mxPoint x="560" y="260" as="targetPoint"/>
                    </mxGeometry>
                </mxCell>
                <mxCell id="25" value="&lt;font color=&quot;#000000&quot;&gt;Cursa&lt;/font&gt;" style="rhombus;whiteSpace=wrap;html=1;fillColor=#cce5ff;strokeColor=#36393d;" vertex="1" parent="1">
                    <mxGeometry x="640" y="150" width="80" height="80" as="geometry"/>
                </mxCell>
                <mxCell id="26" value="" style="endArrow=none;html=1;fontColor=#000000;entryX=0;entryY=0.5;entryDx=0;entryDy=0;fillColor=#cce5ff;strokeColor=#36393d;exitX=1;exitY=0.5;exitDx=0;exitDy=0;" edge="1" parent="1" source="10" target="25">
                    <mxGeometry width="50" height="50" relative="1" as="geometry">
                        <mxPoint x="640" y="320" as="sourcePoint"/>
                        <mxPoint x="640" y="230" as="targetPoint"/>
                    </mxGeometry>
                </mxCell>
                <mxCell id="27" value="" style="endArrow=none;html=1;fontColor=#000000;entryX=0;entryY=0.5;entryDx=0;entryDy=0;fillColor=#cce5ff;strokeColor=#36393d;" edge="1" parent="1" source="25" target="13">
                    <mxGeometry width="50" height="50" relative="1" as="geometry">
                        <mxPoint x="710" y="240" as="sourcePoint"/>
                        <mxPoint x="790" y="250" as="targetPoint"/>
                    </mxGeometry>
                </mxCell>
                <mxCell id="28" value="&lt;font color=&quot;#000000&quot;&gt;Nombre&lt;/font&gt;" style="ellipse;whiteSpace=wrap;html=1;fillColor=#cce5ff;strokeColor=#36393d;" vertex="1" parent="1">
                    <mxGeometry x="350" y="100" width="80" height="40" as="geometry"/>
                </mxCell>
                <mxCell id="29" value="&lt;font color=&quot;#000000&quot;&gt;Rut&lt;/font&gt;" style="ellipse;whiteSpace=wrap;html=1;fillColor=#cce5ff;strokeColor=#36393d;" vertex="1" parent="1">
                    <mxGeometry x="440" y="90" width="80" height="40" as="geometry"/>
                </mxCell>
                <mxCell id="30" value="&lt;font color=&quot;#000000&quot;&gt;Telefono&lt;/font&gt;" style="ellipse;whiteSpace=wrap;html=1;fillColor=#cce5ff;strokeColor=#36393d;" vertex="1" parent="1">
                    <mxGeometry x="540" y="100" width="80" height="40" as="geometry"/>
                </mxCell>
                <mxCell id="31" value="" style="endArrow=none;html=1;fontColor=#000000;entryX=0.5;entryY=1;entryDx=0;entryDy=0;fillColor=#cce5ff;strokeColor=#36393d;exitX=0.25;exitY=0;exitDx=0;exitDy=0;" edge="1" parent="1" source="10" target="28">
                    <mxGeometry width="50" height="50" relative="1" as="geometry">
                        <mxPoint x="370" y="200" as="sourcePoint"/>
                        <mxPoint x="370" y="110" as="targetPoint"/>
                    </mxGeometry>
                </mxCell>
                <mxCell id="32" value="" style="endArrow=none;html=1;fontColor=#000000;entryX=0.5;entryY=1;entryDx=0;entryDy=0;fillColor=#cce5ff;strokeColor=#36393d;exitX=0.5;exitY=0;exitDx=0;exitDy=0;" edge="1" parent="1" source="10" target="29">
                    <mxGeometry width="50" height="50" relative="1" as="geometry">
                        <mxPoint x="480" y="150" as="sourcePoint"/>
                        <mxPoint x="440" y="90" as="targetPoint"/>
                    </mxGeometry>
                </mxCell>
                <mxCell id="33" value="" style="endArrow=none;html=1;fontColor=#000000;entryX=0;entryY=1;entryDx=0;entryDy=0;fillColor=#cce5ff;strokeColor=#36393d;exitX=0.25;exitY=0;exitDx=0;exitDy=0;" edge="1" parent="1" target="30">
                    <mxGeometry width="50" height="50" relative="1" as="geometry">
                        <mxPoint x="510" y="160" as="sourcePoint"/>
                        <mxPoint x="540" y="110" as="targetPoint"/>
                    </mxGeometry>
                </mxCell>
                <mxCell id="34" value="&lt;font color=&quot;#000000&quot;&gt;Nombre&lt;/font&gt;" style="ellipse;whiteSpace=wrap;html=1;fillColor=#cce5ff;strokeColor=#36393d;" vertex="1" parent="1">
                    <mxGeometry x="840" y="90" width="80" height="40" as="geometry"/>
                </mxCell>
                <mxCell id="36" value="" style="endArrow=none;html=1;fontColor=#000000;entryX=0.5;entryY=1;entryDx=0;entryDy=0;fillColor=#cce5ff;strokeColor=#36393d;" edge="1" parent="1" source="13" target="34">
                    <mxGeometry width="50" height="50" relative="1" as="geometry">
                        <mxPoint x="740" y="140" as="sourcePoint"/>
                        <mxPoint x="781.7157287525379" y="114.14213562373106" as="targetPoint"/>
                    </mxGeometry>
                </mxCell>
                <mxCell id="37" value="&lt;font color=&quot;#000000&quot;&gt;Codigo&lt;/font&gt;" style="ellipse;whiteSpace=wrap;html=1;fillColor=#cce5ff;strokeColor=#36393d;" vertex="1" parent="1">
                    <mxGeometry x="940" y="100" width="80" height="40" as="geometry"/>
                </mxCell>
                <mxCell id="38" value="" style="endArrow=none;html=1;fontColor=#000000;entryX=0.5;entryY=1;entryDx=0;entryDy=0;fillColor=#cce5ff;strokeColor=#36393d;exitX=0.75;exitY=0;exitDx=0;exitDy=0;" edge="1" parent="1" source="13" target="37">
                    <mxGeometry width="50" height="50" relative="1" as="geometry">
                        <mxPoint x="1010" y="200" as="sourcePoint"/>
                        <mxPoint x="1010" y="170" as="targetPoint"/>
                    </mxGeometry>
                </mxCell>
                <mxCell id="39" value="&lt;font color=&quot;#000000&quot;&gt;Profesor&lt;/font&gt;" style="ellipse;whiteSpace=wrap;html=1;fillColor=#cce5ff;strokeColor=#36393d;" vertex="1" parent="1">
                    <mxGeometry x="750" y="100" width="80" height="40" as="geometry"/>
                </mxCell>
                <mxCell id="40" value="" style="endArrow=none;html=1;fontColor=#000000;entryX=0.5;entryY=1;entryDx=0;entryDy=0;fillColor=#cce5ff;strokeColor=#36393d;exitX=0.25;exitY=0;exitDx=0;exitDy=0;" edge="1" parent="1" source="13" target="39">
                    <mxGeometry width="50" height="50" relative="1" as="geometry">
                        <mxPoint x="779.5" y="180" as="sourcePoint"/>
                        <mxPoint x="779.5" y="150" as="targetPoint"/>
                    </mxGeometry>
                </mxCell>
                <mxCell id="41" value="&lt;font color=&quot;#000000&quot;&gt;Nombre&lt;/font&gt;" style="ellipse;whiteSpace=wrap;html=1;fillColor=#cce5ff;strokeColor=#36393d;" vertex="1" parent="1">
                    <mxGeometry x="310" y="480" width="80" height="40" as="geometry"/>
                </mxCell>
                <mxCell id="42" value="" style="endArrow=none;html=1;fontColor=#000000;fillColor=#cce5ff;strokeColor=#36393d;exitX=0;exitY=0.5;exitDx=0;exitDy=0;entryX=1;entryY=0.5;entryDx=0;entryDy=0;" edge="1" parent="1" source="12" target="41">
                    <mxGeometry width="50" height="50" relative="1" as="geometry">
                        <mxPoint x="350" y="390" as="sourcePoint"/>
                        <mxPoint x="370" y="460" as="targetPoint"/>
                    </mxGeometry>
                </mxCell>
                <mxCell id="43" value="&lt;font color=&quot;#000000&quot;&gt;Año&lt;/font&gt;" style="ellipse;whiteSpace=wrap;html=1;fillColor=#cce5ff;strokeColor=#36393d;" vertex="1" parent="1">
                    <mxGeometry x="430" y="560" width="80" height="40" as="geometry"/>
                </mxCell>
                <mxCell id="44" value="" style="endArrow=none;html=1;fontColor=#000000;entryX=0.417;entryY=1.033;entryDx=0;entryDy=0;exitX=0.5;exitY=0;exitDx=0;exitDy=0;fillColor=#cce5ff;strokeColor=#36393d;entryPerimeter=0;" edge="1" parent="1" source="43" target="12">
                    <mxGeometry width="50" height="50" relative="1" as="geometry">
                        <mxPoint x="540" y="640" as="sourcePoint"/>
                        <mxPoint x="540" y="560" as="targetPoint"/>
                    </mxGeometry>
                </mxCell>
                <mxCell id="45" value="&lt;font color=&quot;#000000&quot;&gt;Correo&lt;/font&gt;" style="ellipse;whiteSpace=wrap;html=1;fillColor=#cce5ff;strokeColor=#36393d;" vertex="1" parent="1">
                    <mxGeometry x="300" y="170" width="80" height="40" as="geometry"/>
                </mxCell>
                <mxCell id="46" value="" style="endArrow=none;html=1;fontColor=#000000;entryX=1;entryY=0.5;entryDx=0;entryDy=0;fillColor=#cce5ff;strokeColor=#36393d;exitX=0;exitY=0.5;exitDx=0;exitDy=0;" edge="1" parent="1" source="10" target="45">
                    <mxGeometry width="50" height="50" relative="1" as="geometry">
                        <mxPoint x="370" y="320" as="sourcePoint"/>
                        <mxPoint x="370" y="230" as="targetPoint"/>
                    </mxGeometry>
                </mxCell>
                <mxCell id="47" value="&lt;font color=&quot;#000000&quot;&gt;Nombre&lt;/font&gt;" style="ellipse;whiteSpace=wrap;html=1;fillColor=#cce5ff;strokeColor=#36393d;" vertex="1" parent="1">
                    <mxGeometry x="840" y="570" width="80" height="40" as="geometry"/>
                </mxCell>
                <mxCell id="48" value="&lt;font color=&quot;#000000&quot;&gt;Rut&lt;/font&gt;" style="ellipse;whiteSpace=wrap;html=1;fillColor=#cce5ff;strokeColor=#36393d;" vertex="1" parent="1">
                    <mxGeometry x="930" y="570" width="80" height="40" as="geometry"/>
                </mxCell>
                <mxCell id="49" value="&lt;font color=&quot;#000000&quot;&gt;Telefono&lt;/font&gt;" style="ellipse;whiteSpace=wrap;html=1;fillColor=#cce5ff;strokeColor=#36393d;" vertex="1" parent="1">
                    <mxGeometry x="980" y="480" width="80" height="40" as="geometry"/>
                </mxCell>
                <mxCell id="50" value="&lt;font color=&quot;#000000&quot;&gt;Correo&lt;/font&gt;" style="ellipse;whiteSpace=wrap;html=1;fillColor=#cce5ff;strokeColor=#36393d;" vertex="1" parent="1">
                    <mxGeometry x="720" y="550" width="80" height="40" as="geometry"/>
                </mxCell>
                <mxCell id="51" value="" style="endArrow=none;html=1;fontColor=#000000;fillColor=#cce5ff;strokeColor=#36393d;entryX=0.5;entryY=1;entryDx=0;entryDy=0;exitX=0.5;exitY=0;exitDx=0;exitDy=0;" edge="1" parent="1" source="47" target="14">
                    <mxGeometry width="50" height="50" relative="1" as="geometry">
                        <mxPoint x="780" y="620" as="sourcePoint"/>
                        <mxPoint x="780" y="540" as="targetPoint"/>
                    </mxGeometry>
                </mxCell>
                <mxCell id="52" value="" style="endArrow=none;html=1;fontColor=#000000;fillColor=#cce5ff;strokeColor=#36393d;entryX=1;entryY=0.5;entryDx=0;entryDy=0;exitX=0;exitY=1;exitDx=0;exitDy=0;" edge="1" parent="1" source="14" target="50">
                    <mxGeometry width="50" height="50" relative="1" as="geometry">
                        <mxPoint x="800" y="590" as="sourcePoint"/>
                        <mxPoint x="800" y="510" as="targetPoint"/>
                    </mxGeometry>
                </mxCell>
                <mxCell id="53" value="" style="endArrow=none;html=1;fontColor=#000000;fillColor=#cce5ff;strokeColor=#36393d;entryX=0;entryY=0.5;entryDx=0;entryDy=0;exitX=1;exitY=0.5;exitDx=0;exitDy=0;" edge="1" parent="1" source="14" target="49">
                    <mxGeometry width="50" height="50" relative="1" as="geometry">
                        <mxPoint x="960" y="500" as="sourcePoint"/>
                        <mxPoint x="910" y="420" as="targetPoint"/>
                    </mxGeometry>
                </mxCell>
                <mxCell id="54" value="" style="endArrow=none;html=1;fontColor=#000000;fillColor=#cce5ff;strokeColor=#36393d;entryX=0.5;entryY=0;entryDx=0;entryDy=0;exitX=1;exitY=1;exitDx=0;exitDy=0;" edge="1" parent="1" source="14" target="48">
                    <mxGeometry width="50" height="50" relative="1" as="geometry">
                        <mxPoint x="1040" y="620" as="sourcePoint"/>
                        <mxPoint x="1040" y="540" as="targetPoint"/>
                    </mxGeometry>
                </mxCell>
            </root>
        </mxGraphModel>
    </diagram>
</mxfile>